<?xml version="1.0" encoding="UTF-8"?>
<svg width="150px" height="70px" viewBox="0 0 150 70" version="1.1" xmlns="http://www.w3.org/2000/svg" xmlns:xlink="http://www.w3.org/1999/xlink">
    <!-- Generator: Sketch 41.2 (35397) - http://www.bohemiancoding.com/sketch -->
    <title>Artboard</title>
    <desc>Created with Sketch.</desc>
    <defs></defs>
    <g id="UI-Component" stroke="none" stroke-width="1" fill="none" fill-rule="evenodd">
        <g id="Artboard">
            <g id="Group-2" transform="translate(-1.000000, 3.000000)">
                <g id="Flag_of_Senegal" transform="translate(46.000000, 0.000000)">
                    <g id="Group">
                        <rect id="Rectangle-path" fill="#00853F" x="0" y="0" width="60" height="40"></rect>
                        <rect id="Rectangle-path" fill="#FDEF42" x="20" y="0" width="40" height="40"></rect>
                        <rect id="Rectangle-path" fill="#E31B23" x="40" y="0" width="20" height="40"></rect>
                        <g transform="translate(21.783463, 13.236481)" fill="#00853F">
                            <g id="c" transform="translate(4.230108, 0.000000)">
                                <polygon id="t" transform="translate(4.541467, 3.782069) rotate(18.000000) translate(-4.541467, -3.782069) " points="2.87480025 0.448735679 2.87480025 7.11540235 6.20813358 7.11540235"></polygon>
                                <g id="t-link" transform="translate(3.053096, 4.000000) scale(-1, 1) translate(-3.053096, -4.000000) translate(0.053096, 0.000000)">
                                    <polygon id="t" transform="translate(2.621704, 3.782069) rotate(18.000000) translate(-2.621704, -3.782069) " points="0.955037546 0.448735679 0.955037546 7.11540235 4.28837088 7.11540235"></polygon>
                                </g>
                            </g>
                            <g id="c-link" transform="translate(10.849629, 5.922484) rotate(72.000000) translate(-10.849629, -5.922484) translate(6.849629, 1.922484)">
                                <g id="c" transform="translate(0.000000, 0.000000)">
                                    <polygon id="t" transform="translate(4.541467, 3.782069) rotate(18.000000) translate(-4.541467, -3.782069) " points="2.87480025 0.448735679 2.87480025 7.11540235 6.20813358 7.11540235"></polygon>
                                    <g id="t-link" transform="translate(3.053096, 4.000000) scale(-1, 1) translate(-3.053096, -4.000000) translate(0.053096, -0.000000)">
                                        <polygon id="t" transform="translate(2.621704, 3.782069) rotate(18.000000) translate(-2.621704, -3.782069) " points="0.955037546 0.448735679 0.955037546 7.11540235 4.28837088 7.11540235"></polygon>
                                    </g>
                                </g>
                            </g>
                            <g id="c-link" transform="translate(9.830307, 9.007250) rotate(144.000000) translate(-9.830307, -9.007250) translate(5.830307, 5.007250)">
                                <g id="c" transform="translate(-0.000000, -0.000000)">
                                    <polygon id="t" transform="translate(4.541467, 3.782069) rotate(18.000000) translate(-4.541467, -3.782069) " points="2.87480025 0.448735679 2.87480025 7.11540235 6.20813358 7.11540235"></polygon>
                                    <g id="t-link" transform="translate(3.053096, 4.000000) scale(-1, 1) translate(-3.053096, -4.000000) translate(0.053096, -0.000000)">
                                        <polygon id="t" transform="translate(2.621704, 3.782069) rotate(18.000000) translate(-2.621704, -3.782069) " points="0.955037546 0.448735679 0.955037546 7.11540235 4.28837088 7.11540235"></polygon>
                                    </g>
                                </g>
                            </g>
                            <g id="c-link" transform="translate(6.580809, 8.991256) rotate(216.000000) translate(-6.580809, -8.991256) translate(2.580809, 4.991256)">
                                <g id="c" transform="translate(-0.000000, 0.000000)">
                                    <polygon id="t" transform="translate(4.541467, 3.782069) rotate(18.000000) translate(-4.541467, -3.782069) " points="2.87480025 0.448735679 2.87480025 7.11540235 6.20813358 7.11540235"></polygon>
                                    <g id="t-link" transform="translate(3.053096, 4.000000) scale(-1, 1) translate(-3.053096, -4.000000) translate(0.053096, -0.000000)">
                                        <polygon id="t" transform="translate(2.621704, 3.782069) rotate(18.000000) translate(-2.621704, -3.782069) " points="0.955037546 0.448735679 0.955037546 7.11540235 4.28837088 7.11540235"></polygon>
                                    </g>
                                </g>
                            </g>
                            <g id="c-link" transform="translate(5.591832, 5.896606) rotate(-72.000000) translate(-5.591832, -5.896606) translate(1.591832, 1.896606)">
                                <g id="c" transform="translate(0.000000, -0.000000)">
                                    <polygon id="t" transform="translate(4.541467, 3.782069) rotate(18.000000) translate(-4.541467, -3.782069) " points="2.87480025 0.448735679 2.87480025 7.11540235 6.20813358 7.11540235"></polygon>
                                    <g id="t-link" transform="translate(3.053096, 4.000000) scale(-1, 1) translate(-3.053096, -4.000000) translate(0.053096, 0.000000)">
                                        <polygon id="t" transform="translate(2.621704, 3.782069) rotate(18.000000) translate(-2.621704, -3.782069) " points="0.955037546 0.448735679 0.955037546 7.11540235 4.28837088 7.11540235"></polygon>
                                    </g>
                                </g>
                            </g>
                        </g>
                    </g>
                </g>
                <text id="REPUBLIQUE-DU-SÉNÉGA" font-family="ProximaNova-Semibold, Proxima Nova" font-size="11" font-weight="500" fill="#323A44">
                    <tspan x="8.262" y="54">REPUBLIQUE DU SÉNÉGAL</tspan>
                </text>
                <text id="Un-peuple---Un-but--" font-family="ProximaNova-Light, Proxima Nova" font-size="8" font-weight="300" fill="#323A44">
                    <tspan x="27.0733323" y="62">Un peuple - Un but - Une foi</tspan>
                </text>
            </g>
        </g>
    </g>
</svg>